<svg id="svg" version="1.1" xmlns="http://www.w3.org/2000/svg" xmlns:xlink="http://www.w3.org/1999/xlink" width="400" height="324.3498817966903" viewBox="0, 0, 400,324.3498817966903"><g id="svgg"><path id="path0" d="M255.319 2.605 C 229.685 7.143,216.987 37.081,231.592 58.548 C 251.656 88.036,297.748 73.927,297.748 38.298 C 297.748 15.642,277.569 -1.333,255.319 2.605 M308.774 74.952 C 294.814 78.607,290.866 96.567,302.065 105.466 C 313.217 114.328,329.602 107.068,330.428 92.899 C 331.108 81.243,319.976 72.018,308.774 74.952 M280.607 113.366 C 273.369 115.597,271.903 127.171,278.308 131.516 C 284.513 135.725,292.850 131.570,293.319 124.035 C 293.793 116.414,287.595 111.212,280.607 113.366 M311.396 134.338 C 310.524 135.752,309.358 137.198,308.097 138.430 C 306.881 139.618,306.147 140.522,306.147 140.831 C 306.147 141.268,306.041 141.312,305.244 141.205 C 304.074 141.048,303.762 141.325,300.529 145.389 C 298.538 147.892,297.531 148.927,295.863 150.185 C 291.672 153.346,290.025 155.060,287.562 158.823 C 285.088 162.603,284.067 163.830,283.396 163.830 C 282.563 163.830,281.161 162.923,280.856 162.187 C 280.280 160.797,279.770 161.186,277.683 164.609 C 277.085 165.589,275.414 166.024,275.414 165.200 C 275.414 164.993,277.100 162.106,278.678 159.610 C 279.602 158.150,279.334 152.001,278.252 149.801 C 277.647 148.573,277.539 148.160,277.754 147.902 C 277.947 147.668,277.963 147.266,277.809 146.540 C 277.689 145.972,277.518 144.710,277.430 143.735 C 276.901 137.894,272.570 136.242,261.600 137.698 C 255.876 138.457,254.929 138.998,251.654 143.379 C 249.136 146.748,248.863 151.826,251.070 154.255 C 251.307 154.515,251.933 155.586,252.462 156.635 C 253.408 158.511,256.416 162.489,259.136 165.460 C 260.629 167.090,260.649 167.142,260.197 168.202 L 259.895 168.910 257.426 168.831 L 254.956 168.753 253.686 169.607 C 252.988 170.077,251.987 170.558,251.463 170.676 C 249.160 171.193,248.351 172.407,248.325 175.383 C 248.306 177.636,248.287 177.713,247.332 179.325 C 246.797 180.229,246.083 181.874,245.747 182.979 C 245.410 184.084,244.700 186.052,244.170 187.352 C 242.370 191.764,242.103 192.629,241.710 195.311 C 241.494 196.785,241.125 198.479,240.890 199.075 C 239.682 202.140,239.354 219.205,240.451 221.915 C 240.720 222.581,240.687 222.908,240.177 224.634 C 239.360 227.401,239.366 230.374,240.193 232.022 C 240.865 233.362,241.371 233.680,241.371 232.762 C 241.371 231.920,241.711 231.998,242.317 232.979 C 243.016 234.110,243.262 234.018,243.262 232.624 C 243.262 231.252,243.273 231.246,244.342 232.061 C 245.289 232.784,245.266 232.913,244.805 229.433 C 244.345 225.964,244.679 224.113,245.764 224.113 C 246.307 224.113,247.045 225.323,247.046 226.214 C 247.047 227.286,247.850 228.667,248.411 228.560 C 248.992 228.450,249.066 226.556,248.570 224.452 C 248.164 222.729,248.194 221.522,248.687 219.626 C 248.839 219.044,249.119 217.448,249.309 216.080 C 250.230 209.452,252.802 199.451,253.616 199.333 C 254.265 199.239,254.264 199.293,253.560 202.085 C 252.585 205.956,252.294 208.417,252.149 214.037 L 252.010 219.445 251.300 220.685 C 250.260 222.504,250.452 224.481,251.812 225.928 C 252.363 226.514,252.341 226.979,251.643 229.644 C 251.264 231.088,251.251 231.451,251.523 232.835 C 251.978 235.154,252.101 238.536,251.769 239.619 C 251.614 240.128,251.405 242.086,251.305 243.972 C 251.140 247.115,251.030 247.713,249.982 251.182 C 248.632 255.655,248.514 258.134,249.282 265.839 C 249.832 271.348,249.690 274.979,248.820 277.637 C 247.188 282.628,247.506 286.815,249.463 286.107 C 251.031 285.541,251.225 286.016,250.267 288.073 C 249.779 289.120,249.583 289.305,248.673 289.574 C 245.788 290.426,243.648 294.372,245.543 295.344 C 249.439 297.344,252.367 296.858,256.295 293.560 C 257.315 292.703,258.452 291.990,259.219 291.726 C 261.176 291.053,261.466 290.842,261.466 290.091 C 261.466 289.721,261.743 288.687,262.082 287.794 C 262.679 286.218,262.693 286.066,262.537 282.624 C 262.413 279.898,262.461 278.586,262.743 276.950 C 262.944 275.780,263.433 272.617,263.829 269.922 C 264.324 266.549,264.843 264.042,265.493 261.884 C 266.012 260.159,266.707 257.311,267.036 255.556 C 267.365 253.800,267.797 251.513,267.995 250.473 C 268.562 247.501,269.523 245.768,270.209 246.482 C 270.319 246.596,270.785 248.446,271.244 250.591 C 271.704 252.736,272.506 255.903,273.027 257.629 C 273.548 259.354,274.091 261.621,274.234 262.666 C 274.386 263.771,275.272 266.960,276.351 270.286 C 278.611 277.243,278.675 277.595,278.824 283.806 C 278.994 290.879,279.222 291.524,281.822 292.289 C 282.842 292.589,283.756 293.080,284.634 293.800 C 288.089 296.637,292.173 297.361,295.154 295.667 C 297.015 294.609,296.305 292.378,293.617 290.837 C 292.026 289.925,291.747 289.625,290.869 287.884 C 290.112 286.382,290.093 286.288,290.548 286.288 C 291.325 286.288,291.361 285.747,290.922 280.713 C 290.558 276.533,290.542 275.413,290.796 271.716 C 291.166 266.327,290.955 258.976,290.333 255.556 C 287.620 240.646,286.999 236.188,286.998 231.627 C 286.998 228.613,286.921 227.752,286.594 227.065 C 286.193 226.225,286.194 226.216,286.808 225.698 C 288.175 224.546,288.196 224.144,287.234 217.730 C 286.345 211.806,286.344 211.922,287.387 203.617 L 288.253 196.713 287.506 192.742 C 285.878 184.095,287.285 180.405,297.541 166.430 C 302.372 159.847,302.797 159.204,302.978 158.200 C 303.220 156.858,303.427 156.571,306.205 153.714 L 308.801 151.045 308.635 149.272 C 308.435 147.145,308.576 146.909,310.175 146.689 C 312.429 146.379,313.616 145.111,314.005 142.600 C 314.343 140.415,314.125 139.908,312.606 139.349 C 310.965 138.745,310.973 138.800,312.190 136.377 C 314.494 131.793,313.902 130.274,311.396 134.338 M193.972 141.896 C 192.214 142.519,191.022 143.967,190.446 146.175 C 190.001 147.885,189.636 209.369,190.056 211.904 C 191.255 219.138,199.466 219.831,201.665 212.884 C 201.884 212.192,202.010 208.130,202.134 197.754 C 202.323 182.005,202.349 181.719,203.918 178.531 C 207.207 171.847,216.501 170.199,219.725 175.727 C 221.488 178.749,221.854 182.879,221.691 197.904 C 221.551 210.887,221.652 212.696,222.623 214.623 C 224.933 219.203,231.140 218.594,233.125 213.593 L 233.688 212.175 233.688 195.035 C 233.688 176.668,233.655 176.065,232.469 172.763 C 228.089 160.567,213.444 158.179,204.144 168.145 L 202.128 170.307 202.128 159.160 C 202.128 145.866,202.020 145.071,199.962 143.097 C 198.517 141.712,195.945 141.197,193.972 141.896 M357.978 142.450 C 356.565 143.154,355.523 144.547,354.896 146.567 C 354.523 147.772,354.492 150.375,354.492 180.496 L 354.492 213.121 355.050 214.356 C 356.820 218.271,361.091 219.101,364.063 216.107 C 366.158 213.997,366.265 213.502,366.377 205.457 L 366.469 198.739 369.808 195.233 C 371.644 193.305,373.219 191.807,373.309 191.904 C 373.398 192.001,375.975 196.675,379.036 202.291 C 387.355 217.554,387.656 217.951,390.898 217.959 C 394.198 217.967,396.454 215.368,396.537 211.462 C 396.582 209.343,396.815 209.812,388.188 194.693 L 381.316 182.649 385.534 178.381 C 390.282 173.577,391.150 172.560,392.183 170.597 C 394.227 166.711,391.879 162.422,387.707 162.422 C 384.987 162.422,384.531 162.846,373.641 175.510 L 366.548 183.758 366.428 165.342 C 366.291 144.433,366.401 145.570,364.322 143.501 C 362.554 141.740,360.189 141.349,357.978 142.450 M161.506 143.878 C 158.489 145.381,158.088 146.737,157.969 155.851 L 157.874 163.121 156.537 163.122 C 152.994 163.125,150.820 164.968,150.833 167.958 C 150.846 171.029,152.941 172.808,156.547 172.812 L 157.894 172.813 157.983 189.775 C 158.091 210.284,158.213 211.146,161.473 214.405 C 166.724 219.656,181.888 218.230,183.605 212.324 C 184.811 208.177,182.018 205.701,177.305 206.738 C 170.131 208.316,169.980 207.915,169.978 187.293 L 169.976 172.813 172.211 172.813 C 177.377 172.813,179.643 171.547,179.861 168.539 C 180.142 164.648,178.148 163.121,172.788 163.121 L 170.012 163.121 169.935 155.615 L 169.858 148.109 169.196 146.759 C 167.682 143.676,164.387 142.442,161.506 143.878 M306.781 162.415 C 304.886 162.984,303.476 165.027,303.078 167.781 C 302.734 170.162,302.761 210.653,303.108 212.381 C 304.358 218.605,311.731 219.761,314.198 214.120 C 314.856 212.616,314.852 212.697,315.123 196.217 C 315.378 180.738,315.604 179.473,318.746 175.996 C 322.891 171.409,330.483 171.519,332.896 176.201 C 334.329 178.983,334.359 179.359,334.515 196.454 C 334.643 210.451,334.703 212.310,335.066 213.406 C 336.830 218.737,343.420 219.432,345.739 214.530 C 347.147 211.553,347.336 179.773,345.977 174.422 C 342.400 160.340,324.706 157.759,315.520 169.979 C 314.589 171.218,314.022 171.620,314.327 170.826 C 314.586 170.151,313.952 166.423,313.392 165.324 C 312.063 162.719,309.510 161.596,306.781 162.415 M70.606 231.481 C 70.520 249.446,70.449 270.776,70.449 278.881 L 70.449 293.617 79.551 293.617 L 88.652 293.617 88.652 273.448 C 88.652 259.921,88.737 252.820,88.910 251.887 C 90.587 242.814,102.020 240.048,106.112 247.724 C 107.963 251.197,107.901 250.360,107.983 273.345 L 108.055 293.853 117.148 293.853 L 126.241 293.853 126.241 273.463 C 126.241 247.094,125.987 244.476,122.798 237.943 C 116.438 224.913,99.572 223.193,90.294 234.628 C 89.606 235.476,88.955 236.170,88.848 236.170 C 88.740 236.170,88.652 227.766,88.652 217.494 L 88.652 198.818 79.708 198.818 L 70.764 198.818 70.606 231.481 M34.429 227.317 C 28.715 228.453,23.865 231.607,20.734 236.223 C 19.638 237.837,19.544 237.643,19.115 232.886 C 18.902 230.516,18.689 228.541,18.643 228.498 C 18.596 228.454,15.058 228.379,10.781 228.332 L 3.004 228.247 3.167 232.977 C 3.256 235.578,3.323 256.244,3.316 278.901 L 3.303 320.095 12.253 320.095 L 21.204 320.095 21.357 317.080 C 21.442 315.423,21.512 308.082,21.512 300.768 C 21.513 293.454,21.596 287.470,21.698 287.470 C 21.800 287.470,22.063 287.773,22.281 288.143 C 24.540 291.967,31.106 295.024,37.079 295.032 C 50.335 295.051,60.824 284.226,63.220 268.053 C 66.925 243.042,53.178 223.592,34.429 227.317 M212.175 227.323 C 207.457 227.980,205.223 228.589,202.482 229.965 C 194.979 233.731,191.170 239.908,191.146 248.345 C 191.120 257.602,195.843 263.374,207.210 267.976 C 214.603 270.969,216.317 272.446,216.311 275.814 C 216.298 282.188,205.837 283.147,195.093 277.759 C 193.832 277.127,192.730 276.686,192.645 276.780 C 192.559 276.874,191.825 279.929,191.013 283.570 C 190.201 287.210,189.488 290.316,189.429 290.471 C 189.005 291.583,197.827 294.421,203.664 295.051 C 221.453 296.972,233.543 288.723,233.659 274.586 C 233.741 264.527,229.047 258.593,217.310 253.921 C 209.103 250.654,206.913 248.031,208.990 243.959 C 210.902 240.211,219.056 240.225,226.512 243.989 C 227.300 244.387,227.998 244.658,228.064 244.591 C 228.384 244.272,231.228 231.294,231.042 231.000 C 229.876 229.150,217.033 226.647,212.175 227.323 M329.947 227.656 C 311.439 230.003,300.356 243.854,301.011 263.815 C 301.572 280.872,310.252 291.951,325.414 294.962 C 331.378 296.147,346.083 294.688,348.036 292.718 C 348.204 292.549,346.238 278.311,346.016 278.089 C 345.949 278.021,345.220 278.190,344.397 278.463 C 330.229 283.178,319.600 275.801,319.564 261.229 C 319.529 247.079,330.062 239.630,343.676 244.176 C 344.749 244.534,345.627 244.768,345.628 244.695 C 345.630 244.622,346.259 241.320,347.027 237.356 C 347.795 233.393,348.375 230.071,348.316 229.976 C 347.451 228.577,335.040 227.010,329.947 227.656 M372.762 228.127 C 363.690 230.040,357.450 235.645,355.546 243.590 C 352.877 254.732,358.148 263.018,371.277 268.319 C 379.449 271.619,381.519 274.024,379.776 278.196 C 377.816 282.887,366.250 282.501,357.887 277.465 L 356.585 276.681 354.978 283.859 C 354.094 287.808,353.410 291.074,353.458 291.118 C 355.884 293.313,365.207 295.496,372.192 295.504 C 388.154 295.522,397.636 287.728,397.636 274.586 C 397.636 264.697,392.898 258.842,381.085 254.136 C 374.306 251.435,372.340 249.778,372.340 246.764 C 372.340 240.844,381.451 239.614,390.539 244.306 L 392.072 245.098 393.670 238.244 C 394.548 234.474,395.216 231.307,395.153 231.205 C 394.955 230.884,390.920 229.360,388.912 228.848 C 383.966 227.585,376.843 227.267,372.762 228.127 M128.842 228.664 C 128.842 228.697,133.786 242.534,139.827 259.413 C 145.869 276.293,150.879 290.459,150.961 290.895 C 151.782 295.276,143.585 303.608,136.288 305.807 C 135.508 306.042,134.793 306.298,134.698 306.375 C 134.523 306.516,138.098 323.047,138.359 323.308 C 138.841 323.790,145.618 321.494,148.648 319.821 C 158.902 314.162,165.348 303.948,173.764 280.022 C 175.395 275.385,190.307 229.188,190.307 228.772 C 190.307 228.680,185.946 228.605,180.615 228.605 C 175.284 228.605,170.922 228.679,170.922 228.768 C 170.922 228.858,169.114 236.917,166.904 246.676 C 164.695 256.436,162.482 266.283,161.987 268.558 C 161.022 272.992,160.609 273.707,160.215 271.631 C 159.570 268.236,150.919 235.282,149.029 229.019 C 148.921 228.660,128.839 228.307,128.842 228.664 M35.272 242.819 C 43.359 244.536,47.664 256.871,44.420 269.031 C 40.975 281.946,26.389 283.426,22.281 271.277 L 21.641 269.385 21.636 261.584 C 21.632 254.847,21.688 253.576,22.048 252.272 C 23.917 245.507,29.416 241.576,35.272 242.819 " stroke="none" fill="#fcfbfb" fill-rule="evenodd"></path><path id="path1" d="M259.164 2.061 C 259.523 2.115,260.055 2.114,260.346 2.058 C 260.637 2.002,260.343 1.957,259.693 1.959 C 259.043 1.961,258.805 2.007,259.164 2.061 M263.183 2.061 C 263.542 2.115,264.074 2.114,264.365 2.058 C 264.656 2.002,264.362 1.957,263.712 1.959 C 263.061 1.961,262.824 2.007,263.183 2.061 M286.170 11.584 C 286.678 12.104,287.147 12.530,287.212 12.530 C 287.277 12.530,286.914 12.104,286.407 11.584 C 285.899 11.064,285.430 10.638,285.365 10.638 C 285.300 10.638,285.662 11.064,286.170 11.584 M288.180 13.593 C 288.621 14.048,289.035 14.421,289.100 14.421 C 289.165 14.421,288.857 14.048,288.416 13.593 C 287.975 13.138,287.561 12.766,287.496 12.766 C 287.431 12.766,287.739 13.138,288.180 13.593 M225.350 35.461 C 225.350 35.916,225.399 36.102,225.458 35.875 C 225.518 35.647,225.518 35.275,225.458 35.047 C 225.399 34.820,225.350 35.006,225.350 35.461 M297.960 38.298 C 297.960 39.663,297.999 40.222,298.047 39.539 C 298.094 38.856,298.094 37.739,298.047 37.057 C 297.999 36.374,297.960 36.933,297.960 38.298 M225.350 41.135 C 225.350 41.590,225.399 41.776,225.458 41.548 C 225.518 41.321,225.518 40.949,225.458 40.721 C 225.399 40.493,225.350 40.680,225.350 41.135 M288.403 62.825 L 287.589 63.712 288.475 62.897 C 289.300 62.139,289.470 61.939,289.290 61.939 C 289.250 61.939,288.851 62.337,288.403 62.825 M286.039 65.189 L 285.225 66.076 286.111 65.261 C 286.599 64.813,286.998 64.414,286.998 64.374 C 286.998 64.194,286.798 64.364,286.039 65.189 M311.998 74.405 C 312.550 74.455,313.454 74.455,314.007 74.405 C 314.560 74.355,314.108 74.314,313.002 74.314 C 311.897 74.314,311.445 74.355,311.998 74.405 M258.928 74.638 C 259.287 74.692,259.819 74.691,260.110 74.634 C 260.400 74.578,260.106 74.534,259.456 74.536 C 258.806 74.537,258.568 74.583,258.928 74.638 M263.298 74.635 C 263.590 74.691,264.069 74.691,264.362 74.635 C 264.654 74.579,264.415 74.532,263.830 74.532 C 263.245 74.532,263.005 74.579,263.298 74.635 M330.567 91.962 C 330.567 92.677,330.612 92.970,330.666 92.612 C 330.720 92.255,330.720 91.670,330.666 91.312 C 330.612 90.954,330.567 91.247,330.567 91.962 M295.331 91.844 C 295.334 92.364,295.383 92.549,295.439 92.255 C 295.496 91.961,295.493 91.535,295.434 91.309 C 295.375 91.083,295.329 91.324,295.331 91.844 M325.403 104.314 L 324.468 105.319 325.473 104.385 C 326.025 103.871,326.478 103.419,326.478 103.380 C 326.478 103.201,326.272 103.380,325.403 104.314 M300.473 104.374 C 300.914 104.829,301.328 105.201,301.393 105.201 C 301.458 105.201,301.150 104.829,300.709 104.374 C 300.268 103.918,299.854 103.546,299.789 103.546 C 299.724 103.546,300.032 103.918,300.473 104.374 M293.456 123.168 C 293.456 124.013,293.499 124.359,293.552 123.936 C 293.604 123.514,293.604 122.822,293.552 122.400 C 293.499 121.977,293.456 122.323,293.456 123.168 M274.063 123.050 C 274.065 123.700,274.111 123.938,274.165 123.578 C 274.219 123.219,274.218 122.687,274.162 122.396 C 274.106 122.106,274.061 122.400,274.063 123.050 M282.329 133.260 C 282.556 133.319,282.928 133.319,283.156 133.260 C 283.384 133.200,283.197 133.152,282.742 133.152 C 282.287 133.152,282.101 133.200,282.329 133.260 M284.220 133.260 C 284.447 133.319,284.820 133.319,285.047 133.260 C 285.275 133.200,285.089 133.152,284.634 133.152 C 284.178 133.152,283.992 133.200,284.220 133.260 M268.502 137.047 C 268.796 137.103,269.221 137.101,269.447 137.042 C 269.673 136.983,269.433 136.936,268.913 136.939 C 268.392 136.942,268.208 136.990,268.502 137.047 M264.955 137.283 C 265.250 137.340,265.675 137.337,265.901 137.278 C 266.127 137.219,265.887 137.173,265.366 137.175 C 264.846 137.178,264.661 137.226,264.955 137.283 M254.124 140.130 L 253.310 141.017 254.196 140.202 C 255.021 139.444,255.191 139.243,255.011 139.243 C 254.971 139.243,254.572 139.642,254.124 140.130 M195.331 141.540 C 195.689 141.595,196.274 141.595,196.631 141.540 C 196.989 141.486,196.696 141.442,195.981 141.442 C 195.266 141.442,194.973 141.486,195.331 141.540 M363.593 142.627 C 363.593 142.668,363.939 143.014,364.362 143.395 L 365.130 144.090 364.436 143.322 C 363.788 142.605,363.593 142.445,363.593 142.627 M163.537 143.193 C 163.831 143.250,164.257 143.248,164.483 143.188 C 164.709 143.129,164.468 143.083,163.948 143.086 C 163.428 143.088,163.243 143.137,163.537 143.193 M277.596 144.681 C 277.596 145.136,277.645 145.322,277.704 145.095 C 277.764 144.867,277.764 144.495,277.704 144.267 C 277.645 144.040,277.596 144.226,277.596 144.681 M189.931 151.655 C 189.931 153.865,189.967 154.801,190.010 153.735 C 190.054 152.669,190.054 150.860,190.011 149.716 C 189.967 148.572,189.932 149.444,189.931 151.655 M297.739 148.522 L 297.045 149.291 297.813 148.596 C 298.529 147.949,298.690 147.754,298.508 147.754 C 298.467 147.754,298.121 148.100,297.739 148.522 M202.184 159.043 C 202.131 169.289,202.199 170.581,202.741 169.703 C 202.845 169.535,202.806 169.495,202.639 169.598 C 202.438 169.722,202.352 166.992,202.305 158.937 L 202.241 148.109 202.184 159.043 M366.488 165.780 C 366.434 182.394,366.488 184.079,367.044 183.179 C 367.148 183.010,367.109 182.970,366.941 183.073 C 366.738 183.199,366.654 178.822,366.608 165.675 L 366.545 148.109 366.488 165.780 M249.477 150.709 C 249.478 151.359,249.524 151.597,249.579 151.238 C 249.633 150.879,249.632 150.347,249.575 150.056 C 249.519 149.765,249.475 150.059,249.477 150.709 M170.044 150.946 C 170.046 151.596,170.092 151.834,170.146 151.474 C 170.200 151.115,170.199 150.583,170.143 150.292 C 170.087 150.001,170.042 150.296,170.044 150.946 M354.250 170.686 C 354.250 182.193,354.279 186.900,354.314 181.147 C 354.350 175.393,354.350 165.978,354.314 160.225 C 354.279 154.471,354.250 159.178,354.250 170.686 M157.683 157.316 L 157.683 162.859 156.442 162.946 L 155.201 163.033 156.560 163.077 L 157.920 163.121 157.920 157.447 C 157.920 154.326,157.866 151.773,157.801 151.773 C 157.736 151.773,157.683 154.267,157.683 157.316 M305.905 154.078 L 303.664 156.383 305.969 154.142 C 308.110 152.060,308.382 151.773,308.210 151.773 C 308.175 151.773,307.138 152.810,305.905 154.078 M279.279 156.738 C 279.279 157.843,279.320 158.295,279.369 157.742 C 279.419 157.190,279.419 156.285,279.369 155.733 C 279.320 155.180,279.279 155.632,279.279 156.738 M307.979 162.105 C 308.271 162.162,308.750 162.162,309.043 162.105 C 309.335 162.049,309.096 162.003,308.511 162.003 C 307.926 162.003,307.686 162.049,307.979 162.105 M329.846 162.101 C 330.074 162.161,330.446 162.161,330.674 162.101 C 330.901 162.042,330.715 161.993,330.260 161.993 C 329.805 161.993,329.619 162.042,329.846 162.101 M284.264 163.180 L 283.570 163.948 284.338 163.254 C 285.054 162.606,285.215 162.411,285.032 162.411 C 284.992 162.411,284.646 162.757,284.264 163.180 M170.185 162.952 C 170.288 163.054,171.480 163.107,172.834 163.069 L 175.296 163.000 172.647 162.883 C 171.190 162.819,170.082 162.850,170.185 162.952 M311.584 162.958 C 311.584 162.999,311.930 163.345,312.352 163.726 L 313.121 164.421 312.426 163.652 C 311.779 162.936,311.584 162.775,311.584 162.958 M227.896 165.559 C 227.896 165.599,228.242 165.945,228.664 166.327 L 229.433 167.021 228.738 166.253 C 228.091 165.537,227.896 165.376,227.896 165.559 M204.721 167.317 L 203.191 168.913 204.787 167.383 C 206.269 165.962,206.491 165.721,206.317 165.721 C 206.281 165.721,205.563 166.439,204.721 167.317 M150.659 167.967 C 150.660 168.617,150.706 168.855,150.761 168.496 C 150.815 168.136,150.814 167.604,150.757 167.314 C 150.701 167.023,150.657 167.317,150.659 167.967 M179.973 167.967 C 179.975 168.617,180.021 168.855,180.075 168.496 C 180.129 168.136,180.128 167.604,180.072 167.314 C 180.016 167.023,179.971 167.317,179.973 167.967 M257.270 168.721 C 257.497 168.780,257.869 168.780,258.097 168.721 C 258.324 168.661,258.138 168.613,257.683 168.613 C 257.228 168.613,257.042 168.661,257.270 168.721 M325.594 172.746 C 325.954 172.801,326.486 172.799,326.776 172.743 C 327.067 172.687,326.773 172.643,326.123 172.644 C 325.473 172.646,325.235 172.692,325.594 172.746 M156.438 172.980 L 157.676 173.074 157.744 179.622 L 157.812 186.170 157.807 179.551 L 157.801 172.931 156.501 172.909 L 155.201 172.886 156.438 172.980 M170.085 173.109 C 170.023 173.271,170.000 179.787,170.035 187.589 L 170.098 201.773 170.156 187.421 L 170.213 173.068 172.281 172.989 L 174.350 172.910 172.274 172.862 C 170.794 172.827,170.166 172.898,170.085 173.109 M248.066 175.177 C 248.066 176.022,248.109 176.368,248.162 175.946 C 248.214 175.523,248.214 174.832,248.162 174.409 C 248.109 173.986,248.066 174.332,248.066 175.177 M386.049 177.955 L 382.861 181.206 386.111 178.017 C 389.131 175.056,389.469 174.704,389.299 174.704 C 389.265 174.704,387.802 176.167,386.049 177.955 M233.625 178.251 C 233.625 178.706,233.673 178.892,233.733 178.664 C 233.792 178.437,233.792 178.064,233.733 177.837 C 233.673 177.609,233.625 177.796,233.625 178.251 M346.632 178.842 C 346.634 179.362,346.683 179.547,346.739 179.253 C 346.796 178.958,346.794 178.533,346.735 178.307 C 346.675 178.081,346.629 178.322,346.632 178.842 M233.911 188.180 C 233.911 192.015,233.943 193.585,233.983 191.667 C 234.023 189.749,234.023 186.611,233.983 184.693 C 233.943 182.775,233.911 184.344,233.911 188.180 M334.339 183.333 C 334.341 183.853,334.390 184.038,334.446 183.744 C 334.503 183.450,334.501 183.025,334.441 182.799 C 334.382 182.573,334.336 182.813,334.339 183.333 M315.203 187.589 C 315.205 188.369,315.249 188.659,315.301 188.235 C 315.354 187.810,315.353 187.171,315.299 186.816 C 315.245 186.461,315.202 186.809,315.203 187.589 M202.210 188.416 C 202.210 189.521,202.251 189.973,202.301 189.421 C 202.351 188.868,202.351 187.964,202.301 187.411 C 202.251 186.859,202.210 187.311,202.210 188.416 M302.710 199.527 C 302.710 205.703,302.740 208.230,302.778 205.142 C 302.815 202.054,302.815 197.001,302.778 193.913 C 302.740 190.824,302.710 193.351,302.710 199.527 M368.670 196.513 L 367.021 198.227 368.735 196.578 C 370.327 195.047,370.557 194.799,370.384 194.799 C 370.348 194.799,369.576 195.570,368.670 196.513 M70.557 198.877 C 70.495 199.040,70.473 204.173,70.508 210.284 L 70.572 221.395 70.629 210.109 L 70.686 198.824 79.728 198.759 L 88.771 198.694 79.721 198.638 C 72.657 198.594,70.646 198.646,70.557 198.877 M366.498 199.882 C 366.500 200.532,366.546 200.770,366.600 200.410 C 366.654 200.051,366.653 199.519,366.597 199.228 C 366.541 198.938,366.496 199.232,366.498 199.882 M157.756 202.719 C 157.758 203.499,157.802 203.789,157.855 203.365 C 157.907 202.940,157.906 202.301,157.852 201.946 C 157.798 201.591,157.755 201.939,157.756 202.719 M179.374 206.313 C 179.666 206.370,180.145 206.370,180.437 206.313 C 180.730 206.257,180.491 206.211,179.905 206.211 C 179.320 206.211,179.081 206.257,179.374 206.313 M239.573 209.456 C 239.573 211.212,239.610 211.930,239.655 211.052 C 239.701 210.174,239.701 208.738,239.655 207.861 C 239.610 206.983,239.573 207.701,239.573 209.456 M252.089 210.402 C 252.089 211.377,252.131 211.776,252.182 211.288 C 252.233 210.801,252.233 210.003,252.182 209.515 C 252.131 209.028,252.089 209.427,252.089 210.402 M286.604 211.584 C 286.604 212.559,286.646 212.958,286.697 212.470 C 286.748 211.983,286.748 211.185,286.697 210.697 C 286.646 210.210,286.604 210.609,286.604 211.584 M314.948 211.111 C 314.948 211.566,314.997 211.752,315.057 211.525 C 315.116 211.297,315.116 210.925,315.057 210.697 C 314.997 210.470,314.948 210.656,314.948 211.111 M239.787 216.312 C 239.787 217.027,239.831 217.320,239.886 216.962 C 239.940 216.605,239.940 216.020,239.886 215.662 C 239.831 215.304,239.787 215.597,239.787 216.312 M199.867 216.135 L 199.173 216.903 199.941 216.209 C 200.363 215.827,200.709 215.481,200.709 215.440 C 200.709 215.258,200.514 215.419,199.867 216.135 M88.709 225.946 C 88.656 235.523,88.726 236.771,89.266 235.897 C 89.370 235.729,89.331 235.688,89.164 235.791 C 88.963 235.916,88.877 233.359,88.830 225.840 L 88.765 215.721 88.709 225.946 M169.326 217.663 C 169.684 217.718,170.269 217.718,170.626 217.663 C 170.984 217.609,170.691 217.565,169.976 217.565 C 169.261 217.565,168.969 217.609,169.326 217.663 M172.286 217.665 C 172.710 217.718,173.349 217.717,173.704 217.663 C 174.059 217.609,173.712 217.566,172.931 217.567 C 172.151 217.569,171.861 217.613,172.286 217.665 M308.337 217.900 C 308.696 217.954,309.228 217.953,309.519 217.897 C 309.809 217.841,309.515 217.796,308.865 217.798 C 308.215 217.800,307.977 217.846,308.337 217.900 M390.487 218.134 C 390.781 218.191,391.207 218.189,391.433 218.129 C 391.659 218.070,391.418 218.024,390.898 218.027 C 390.378 218.029,390.193 218.078,390.487 218.134 M248.298 222.222 C 248.298 222.937,248.342 223.230,248.396 222.872 C 248.450 222.515,248.450 221.930,248.396 221.572 C 248.342 221.215,248.298 221.507,248.298 222.222 M287.998 223.404 C 287.998 223.859,288.047 224.046,288.106 223.818 C 288.166 223.590,288.166 223.218,288.106 222.991 C 288.047 222.763,287.998 222.949,287.998 223.404 M249.001 227.187 C 249.001 227.772,249.047 228.011,249.103 227.719 C 249.159 227.426,249.159 226.947,249.103 226.655 C 249.047 226.362,249.001 226.602,249.001 227.187 M37.057 226.881 C 37.349 226.937,37.828 226.937,38.121 226.881 C 38.413 226.824,38.174 226.778,37.589 226.778 C 37.004 226.778,36.764 226.824,37.057 226.881 M40.606 226.881 C 40.900 226.938,41.325 226.936,41.551 226.876 C 41.777 226.817,41.537 226.771,41.017 226.774 C 40.496 226.776,40.312 226.825,40.606 226.881 M217.790 227.350 C 218.017 227.409,218.389 227.409,218.617 227.350 C 218.845 227.290,218.658 227.242,218.203 227.242 C 217.748 227.242,217.562 227.290,217.790 227.350 M333.868 227.356 C 334.228 227.411,334.760 227.409,335.051 227.353 C 335.341 227.297,335.047 227.253,334.397 227.254 C 333.747 227.256,333.509 227.302,333.868 227.356 M239.311 228.487 C 239.313 229.137,239.359 229.375,239.413 229.016 C 239.467 228.656,239.466 228.124,239.410 227.834 C 239.354 227.543,239.309 227.837,239.311 228.487 M337.884 227.586 C 338.112 227.646,338.484 227.646,338.712 227.586 C 338.939 227.527,338.753 227.478,338.298 227.478 C 337.843 227.478,337.657 227.527,337.884 227.586 M375.946 227.586 C 376.173 227.646,376.546 227.646,376.773 227.586 C 377.001 227.527,376.814 227.478,376.359 227.478 C 375.904 227.478,375.718 227.527,375.946 227.586 M380.792 227.590 C 381.085 227.646,381.563 227.646,381.856 227.590 C 382.148 227.534,381.909 227.488,381.324 227.488 C 380.739 227.488,380.499 227.534,380.792 227.590 M2.918 229.905 C 2.919 230.946,2.960 231.342,3.010 230.786 C 3.060 230.230,3.060 229.379,3.009 228.894 C 2.958 228.410,2.917 228.865,2.918 229.905 M287.071 229.433 C 287.072 230.213,287.116 230.503,287.169 230.079 C 287.222 229.654,287.220 229.015,287.167 228.660 C 287.113 228.305,287.070 228.652,287.071 229.433 M132.742 228.539 C 141.791 228.704,149.118 228.707,149.018 228.546 C 148.958 228.449,144.473 228.392,139.052 228.421 C 133.631 228.450,130.792 228.503,132.742 228.539 M174.542 228.546 C 176.598 228.585,179.896 228.585,181.871 228.546 C 183.845 228.506,182.163 228.474,178.132 228.474 C 174.102 228.474,172.486 228.506,174.542 228.546 M118.666 231.974 C 119.646 233.018,119.858 233.205,119.858 233.028 C 119.858 232.990,119.353 232.485,118.735 231.905 L 117.612 230.851 118.666 231.974 M243.298 232.210 C 243.332 232.947,243.337 232.951,243.433 232.314 C 243.521 231.730,243.581 231.687,243.930 231.959 C 244.285 232.238,244.293 232.227,244.002 231.856 C 243.511 231.230,243.258 231.357,243.298 232.210 M23.041 233.156 L 21.868 234.397 23.109 233.224 C 23.791 232.579,24.350 232.020,24.350 231.983 C 24.350 231.806,24.131 232.003,23.041 233.156 M91.356 233.156 L 90.662 233.924 91.430 233.230 C 92.146 232.583,92.307 232.388,92.125 232.388 C 92.084 232.388,91.738 232.733,91.356 233.156 M240.698 233.197 C 241.096 233.633,241.611 233.535,241.604 233.024 C 241.602 232.847,241.520 232.869,241.386 233.082 C 241.202 233.371,241.108 233.373,240.739 233.095 C 240.333 232.787,240.330 232.793,240.698 233.197 M311.451 235.520 L 310.757 236.288 311.525 235.594 C 312.241 234.947,312.402 234.752,312.219 234.752 C 312.178 234.752,311.833 235.098,311.451 235.520 M3.164 238.180 C 3.164 239.740,3.202 240.347,3.249 239.530 C 3.295 238.712,3.294 237.435,3.248 236.693 C 3.201 235.950,3.163 236.619,3.164 238.180 M309.323 237.648 L 308.629 238.416 309.397 237.722 C 309.820 237.340,310.165 236.994,310.165 236.953 C 310.165 236.771,309.970 236.932,309.323 237.648 M214.598 241.308 C 215.151 241.358,216.055 241.358,216.608 241.308 C 217.160 241.258,216.708 241.217,215.603 241.217 C 214.498 241.217,214.046 241.258,214.598 241.308 M378.783 241.540 C 379.140 241.595,379.725 241.595,380.083 241.540 C 380.440 241.486,380.148 241.442,379.433 241.442 C 378.717 241.442,378.425 241.486,378.783 241.540 M251.150 244.326 C 251.151 245.626,251.190 246.128,251.238 245.441 C 251.286 244.754,251.286 243.690,251.237 243.077 C 251.189 242.464,251.150 243.026,251.150 244.326 M32.565 242.720 C 32.858 242.776,33.336 242.776,33.629 242.720 C 33.921 242.664,33.682 242.618,33.097 242.618 C 32.512 242.618,32.272 242.664,32.565 242.720 M337.884 243.189 C 338.112 243.248,338.484 243.248,338.712 243.189 C 338.939 243.130,338.753 243.081,338.298 243.081 C 337.843 243.081,337.657 243.130,337.884 243.189 M97.813 243.433 C 98.236 243.486,98.927 243.486,99.350 243.433 C 99.772 243.381,99.427 243.338,98.582 243.338 C 97.736 243.338,97.391 243.381,97.813 243.433 M25.532 245.981 C 24.958 246.566,24.541 247.045,24.606 247.045 C 24.671 247.045,25.194 246.566,25.768 245.981 C 26.343 245.396,26.759 244.917,26.694 244.917 C 26.629 244.917,26.106 245.396,25.532 245.981 M103.783 244.991 C 103.783 245.032,104.128 245.378,104.551 245.760 L 105.319 246.454 104.625 245.686 C 103.978 244.969,103.783 244.809,103.783 244.991 M208.329 246.572 C 208.329 247.027,208.378 247.213,208.437 246.986 C 208.497 246.758,208.497 246.386,208.437 246.158 C 208.378 245.931,208.329 246.117,208.329 246.572 M190.840 246.927 C 190.842 247.447,190.891 247.632,190.947 247.338 C 191.004 247.044,191.002 246.618,190.943 246.392 C 190.883 246.166,190.837 246.407,190.840 246.927 M190.835 250.355 C 190.835 250.810,190.884 250.996,190.943 250.768 C 191.003 250.541,191.003 250.168,190.943 249.941 C 190.884 249.713,190.835 249.900,190.835 250.355 M126.060 250.591 C 126.060 251.046,126.108 251.232,126.168 251.005 C 126.227 250.777,126.227 250.405,126.168 250.177 C 126.108 249.950,126.060 250.136,126.060 250.591 M88.760 262.530 C 88.760 267.730,88.791 269.824,88.830 267.183 C 88.868 264.541,88.868 260.286,88.829 257.727 C 88.791 255.167,88.760 257.329,88.760 262.530 M126.347 261.229 C 126.347 265.455,126.379 267.184,126.418 265.071 C 126.457 262.958,126.457 259.501,126.418 257.388 C 126.379 255.275,126.347 257.004,126.347 261.229 M107.861 255.201 C 107.864 255.721,107.912 255.906,107.969 255.612 C 108.025 255.318,108.023 254.892,107.964 254.666 C 107.905 254.440,107.858 254.681,107.861 255.201 M21.616 261.466 C 21.616 264.911,21.649 266.321,21.690 264.598 C 21.730 262.875,21.730 260.056,21.690 258.333 C 21.649 256.611,21.616 258.020,21.616 261.466 M45.245 260.993 C 45.245 262.618,45.283 263.283,45.329 262.470 C 45.375 261.658,45.375 260.328,45.329 259.515 C 45.283 258.703,45.245 259.368,45.245 260.993 M290.840 259.220 C 290.842 259.740,290.891 259.925,290.947 259.631 C 291.004 259.337,291.002 258.911,290.943 258.685 C 290.883 258.459,290.837 258.700,290.840 259.220 M228.369 260.402 C 228.810 260.857,229.224 261.229,229.289 261.229 C 229.354 261.229,229.046 260.857,228.605 260.402 C 228.164 259.947,227.750 259.574,227.685 259.574 C 227.620 259.574,227.928 259.947,228.369 260.402 M300.799 262.175 C 300.799 263.670,300.837 264.282,300.884 263.534 C 300.931 262.787,300.931 261.563,300.884 260.816 C 300.837 260.068,300.799 260.680,300.799 262.175 M392.435 260.875 C 393.141 261.590,393.772 262.175,393.837 262.175 C 393.902 262.175,393.378 261.590,392.671 260.875 C 391.965 260.160,391.334 259.574,391.269 259.574 C 391.204 259.574,391.729 260.160,392.435 260.875 M248.759 261.584 C 248.762 262.104,248.810 262.289,248.867 261.995 C 248.924 261.701,248.921 261.275,248.862 261.049 C 248.803 260.823,248.757 261.064,248.759 261.584 M291.107 265.130 C 291.107 266.690,291.146 267.298,291.192 266.480 C 291.238 265.662,291.238 264.386,291.191 263.643 C 291.144 262.901,291.106 263.570,291.107 265.130 M63.648 264.539 C 63.648 264.994,63.697 265.180,63.756 264.953 C 63.816 264.725,63.816 264.353,63.756 264.125 C 63.697 263.898,63.648 264.084,63.648 264.539 M249.498 271.395 C 249.498 272.890,249.537 273.502,249.584 272.754 C 249.631 272.007,249.631 270.783,249.584 270.035 C 249.537 269.288,249.498 269.900,249.498 271.395 M290.845 271.868 C 290.845 272.453,290.891 272.692,290.947 272.400 C 291.003 272.107,291.003 271.628,290.947 271.336 C 290.891 271.043,290.845 271.283,290.845 271.868 M397.691 272.813 C 397.691 273.268,397.739 273.454,397.799 273.227 C 397.858 272.999,397.858 272.627,397.799 272.400 C 397.739 272.172,397.691 272.358,397.691 272.813 M233.861 274.232 C 233.861 274.687,233.910 274.873,233.969 274.645 C 234.029 274.418,234.029 274.046,233.969 273.818 C 233.910 273.590,233.861 273.777,233.861 274.232 M290.621 275.768 C 290.622 276.678,290.665 277.022,290.716 276.531 C 290.767 276.041,290.767 275.296,290.714 274.877 C 290.662 274.457,290.620 274.858,290.621 275.768 M107.909 284.161 C 107.909 289.557,107.941 291.764,107.978 289.066 C 108.016 286.368,108.016 281.953,107.978 279.255 C 107.941 276.557,107.909 278.765,107.909 284.161 M216.130 275.650 C 216.130 276.105,216.179 276.291,216.239 276.064 C 216.298 275.836,216.298 275.464,216.239 275.236 C 216.179 275.009,216.130 275.195,216.130 275.650 M25.414 276.359 C 26.054 277.009,26.631 277.541,26.696 277.541 C 26.761 277.541,26.290 277.009,25.650 276.359 C 25.010 275.709,24.433 275.177,24.368 275.177 C 24.303 275.177,24.773 275.709,25.414 276.359 M397.696 276.478 C 397.698 276.998,397.747 277.183,397.803 276.888 C 397.860 276.594,397.858 276.169,397.798 275.943 C 397.739 275.717,397.693 275.957,397.696 276.478 M70.269 285.520 L 70.213 293.853 77.364 293.798 L 84.515 293.743 77.485 293.676 L 70.455 293.610 70.390 285.398 L 70.325 277.187 70.269 285.520 M278.580 281.324 C 278.580 283.079,278.617 283.797,278.662 282.920 C 278.708 282.042,278.708 280.606,278.662 279.728 C 278.617 278.850,278.580 279.569,278.580 281.324 M290.835 279.433 C 290.835 279.888,290.884 280.074,290.943 279.846 C 291.003 279.619,291.003 279.246,290.943 279.019 C 290.884 278.791,290.835 278.978,290.835 279.433 M262.471 280.969 C 262.474 281.489,262.522 281.674,262.579 281.380 C 262.635 281.086,262.633 280.661,262.574 280.435 C 262.515 280.209,262.468 280.449,262.471 280.969 M207.501 281.258 C 207.920 281.310,208.665 281.311,209.155 281.260 C 209.646 281.209,209.303 281.166,208.392 281.165 C 207.482 281.164,207.081 281.206,207.501 281.258 M370.629 281.491 C 370.923 281.548,371.349 281.545,371.575 281.486 C 371.801 281.427,371.560 281.381,371.040 281.383 C 370.520 281.386,370.335 281.435,370.629 281.491 M373.230 281.491 C 373.524 281.548,373.949 281.545,374.175 281.486 C 374.401 281.427,374.161 281.381,373.641 281.383 C 373.121 281.386,372.936 281.435,373.230 281.491 M262.707 284.043 C 262.710 284.563,262.758 284.748,262.815 284.454 C 262.872 284.159,262.869 283.734,262.810 283.508 C 262.751 283.282,262.705 283.522,262.707 284.043 M291.317 284.870 C 291.317 285.455,291.363 285.694,291.420 285.402 C 291.476 285.109,291.476 284.631,291.420 284.338 C 291.363 284.046,291.317 284.285,291.317 284.870 M309.811 287.234 C 310.714 288.144,311.506 288.889,311.571 288.889 C 311.636 288.889,310.950 288.144,310.047 287.234 C 309.144 286.324,308.352 285.579,308.287 285.579 C 308.222 285.579,308.908 286.324,309.811 287.234 M3.185 303.191 C 3.185 312.553,3.215 316.349,3.251 311.626 C 3.286 306.903,3.286 299.243,3.250 294.604 C 3.215 289.966,3.185 293.830,3.185 303.191 M54.137 287.825 C 53.563 288.410,53.146 288.889,53.211 288.889 C 53.276 288.889,53.799 288.410,54.374 287.825 C 54.948 287.240,55.364 286.761,55.299 286.761 C 55.234 286.761,54.711 287.240,54.137 287.825 M278.778 287.707 C 278.778 288.162,278.827 288.348,278.886 288.121 C 278.946 287.893,278.946 287.521,278.886 287.293 C 278.827 287.066,278.778 287.252,278.778 287.707 M392.775 288.239 L 392.080 289.007 392.849 288.313 C 393.565 287.666,393.726 287.470,393.543 287.470 C 393.502 287.470,393.157 287.816,392.775 288.239 M36.229 295.208 C 36.717 295.259,37.515 295.259,38.002 295.208 C 38.490 295.157,38.091 295.115,37.116 295.115 C 36.141 295.115,35.742 295.157,36.229 295.208 M206.915 295.447 C 207.663 295.493,208.886 295.493,209.634 295.447 C 210.381 295.400,209.770 295.361,208.274 295.361 C 206.779 295.361,206.167 295.400,206.915 295.447 M336.466 295.435 C 336.693 295.494,337.066 295.494,337.293 295.435 C 337.521 295.375,337.335 295.327,336.879 295.327 C 336.424 295.327,336.238 295.375,336.466 295.435 M331.028 295.682 C 331.646 295.731,332.657 295.731,333.274 295.682 C 333.892 295.633,333.387 295.593,332.151 295.593 C 330.916 295.593,330.411 295.633,331.028 295.682 M369.326 295.678 C 369.684 295.732,370.269 295.732,370.626 295.678 C 370.984 295.623,370.691 295.579,369.976 295.579 C 369.261 295.579,368.969 295.623,369.326 295.678 M374.058 295.678 C 374.417 295.732,374.949 295.731,375.240 295.675 C 375.530 295.619,375.236 295.574,374.586 295.576 C 373.936 295.578,373.698 295.624,374.058 295.678 M145.850 299.941 L 145.035 300.827 145.922 300.013 C 146.747 299.254,146.917 299.054,146.737 299.054 C 146.697 299.054,146.298 299.453,145.850 299.941 M156.139 314.243 L 154.728 315.721 156.206 314.310 C 157.018 313.534,157.683 312.869,157.683 312.832 C 157.683 312.658,157.450 312.871,156.139 314.243 M18.623 320.268 C 19.179 320.318,20.030 320.317,20.515 320.266 C 20.999 320.216,20.544 320.175,19.504 320.176 C 18.463 320.176,18.067 320.218,18.623 320.268 " stroke="none" fill="#f4aab1" fill-rule="evenodd"></path><path id="path2" d="M261.288 74.631 C 261.516 74.691,261.888 74.691,262.116 74.631 C 262.343 74.572,262.157 74.523,261.702 74.523 C 261.247 74.523,261.061 74.572,261.288 74.631 M170.047 154.374 C 170.047 155.089,170.092 155.381,170.146 155.024 C 170.200 154.666,170.200 154.081,170.146 153.723 C 170.092 153.366,170.047 153.658,170.047 154.374 M189.929 165.839 C 189.929 167.790,189.966 168.556,190.010 167.542 C 190.055 166.529,190.055 164.933,190.010 163.996 C 189.965 163.060,189.929 163.889,189.929 165.839 M383.082 164.598 L 382.388 165.366 383.156 164.672 C 383.872 164.025,384.033 163.830,383.850 163.830 C 383.810 163.830,383.464 164.176,383.082 164.598 M221.608 193.735 C 221.608 195.686,221.644 196.452,221.689 195.438 C 221.733 194.425,221.733 192.829,221.688 191.892 C 221.644 190.956,221.607 191.785,221.608 193.735 M157.779 197.163 C 157.779 199.309,157.815 200.186,157.859 199.113 C 157.903 198.041,157.903 196.285,157.859 195.213 C 157.815 194.140,157.779 195.018,157.779 197.163 M354.232 201.891 C 354.232 203.907,354.269 204.731,354.313 203.723 C 354.357 202.716,354.357 201.067,354.313 200.059 C 354.269 199.051,354.232 199.876,354.232 201.891 M88.747 205.319 C 88.747 207.270,88.784 208.036,88.828 207.022 C 88.873 206.009,88.873 204.413,88.828 203.476 C 88.783 202.539,88.747 203.369,88.747 205.319 M314.948 209.220 C 314.948 209.675,314.997 209.861,315.057 209.634 C 315.116 209.406,315.116 209.034,315.057 208.806 C 314.997 208.579,314.948 208.765,314.948 209.220 M252.064 214.421 C 252.064 214.876,252.113 215.062,252.172 214.835 C 252.232 214.607,252.232 214.235,252.172 214.007 C 252.113 213.780,252.064 213.966,252.064 214.421 M13.760 228.307 C 14.632 228.353,16.122 228.353,17.070 228.308 C 18.018 228.263,17.305 228.226,15.485 228.226 C 13.664 228.225,12.888 228.262,13.760 228.307 M70.544 231.797 C 70.544 233.747,70.581 234.513,70.625 233.500 C 70.670 232.486,70.669 230.890,70.624 229.954 C 70.580 229.017,70.543 229.846,70.544 231.797 " stroke="none" fill="#fbced2" fill-rule="evenodd"></path><path id="path3" d="M261.170 2.058 C 261.463 2.114,261.941 2.114,262.234 2.058 C 262.527 2.002,262.287 1.956,261.702 1.956 C 261.117 1.956,260.878 2.002,261.170 2.058 M170.072 159.102 C 170.072 161.117,170.108 161.941,170.152 160.934 C 170.196 159.926,170.196 158.277,170.152 157.270 C 170.108 156.262,170.072 157.086,170.072 159.102 M189.929 158.983 C 189.929 160.934,189.966 161.700,190.010 160.687 C 190.055 159.673,190.055 158.077,190.010 157.140 C 189.965 156.204,189.929 157.033,189.929 158.983 M221.600 187.943 C 221.600 189.309,221.640 189.867,221.687 189.184 C 221.735 188.502,221.735 187.385,221.687 186.702 C 221.640 186.020,221.600 186.578,221.600 187.943 M157.778 189.835 C 157.778 191.850,157.815 192.674,157.859 191.667 C 157.903 190.659,157.903 189.010,157.859 188.002 C 157.815 186.995,157.778 187.819,157.778 189.835 M354.232 194.917 C 354.232 196.868,354.269 197.634,354.313 196.620 C 354.357 195.607,354.357 194.011,354.312 193.074 C 354.268 192.138,354.231 192.967,354.232 194.917 M88.748 212.293 C 88.748 214.309,88.784 215.133,88.828 214.125 C 88.873 213.118,88.873 211.469,88.828 210.461 C 88.784 209.453,88.748 210.278,88.748 212.293 M252.069 212.884 C 252.072 213.404,252.120 213.589,252.177 213.295 C 252.233 213.001,252.231 212.576,252.172 212.349 C 252.113 212.123,252.066 212.364,252.069 212.884 M70.544 224.823 C 70.544 226.838,70.581 227.663,70.625 226.655 C 70.669 225.647,70.669 223.998,70.625 222.991 C 70.581 221.983,70.544 222.807,70.544 224.823 M85.402 293.791 C 86.020 293.839,87.030 293.839,87.648 293.791 C 88.265 293.742,87.760 293.702,86.525 293.702 C 85.290 293.702,84.784 293.742,85.402 293.791 " stroke="none" fill="#f4c4c4" fill-rule="evenodd"></path><path id="path4" d="M189.930 172.813 C 189.930 174.829,189.966 175.653,190.010 174.645 C 190.055 173.638,190.055 171.989,190.010 170.981 C 189.966 169.973,189.930 170.798,189.930 172.813 M221.608 200.591 C 221.608 202.541,221.644 203.308,221.689 202.294 C 221.733 201.281,221.733 199.685,221.688 198.748 C 221.644 197.811,221.607 198.641,221.608 200.591 M88.730 200.355 C 88.731 201.265,88.774 201.608,88.825 201.118 C 88.876 200.627,88.875 199.882,88.823 199.463 C 88.771 199.043,88.729 199.444,88.730 200.355 M314.988 205.083 C 314.988 207.033,315.025 207.800,315.070 206.786 C 315.114 205.772,315.114 204.177,315.069 203.240 C 315.024 202.303,314.988 203.132,314.988 205.083 M354.225 207.801 C 354.225 209.167,354.264 209.725,354.311 209.043 C 354.359 208.360,354.359 207.243,354.311 206.560 C 354.264 205.878,354.225 206.436,354.225 207.801 M378.431 227.590 C 378.725 227.647,379.150 227.645,379.376 227.586 C 379.602 227.526,379.362 227.480,378.842 227.483 C 378.322 227.485,378.137 227.534,378.431 227.590 M6.915 228.308 C 7.923 228.352,9.572 228.352,10.579 228.308 C 11.587 228.264,10.762 228.228,8.747 228.228 C 6.732 228.228,5.907 228.264,6.915 228.308 M70.544 238.771 C 70.544 240.786,70.581 241.611,70.625 240.603 C 70.669 239.595,70.669 237.946,70.625 236.939 C 70.581 235.931,70.544 236.755,70.544 238.771 M3.377 250.473 C 3.379 251.123,3.425 251.361,3.479 251.001 C 3.534 250.642,3.532 250.110,3.476 249.819 C 3.420 249.529,3.376 249.823,3.377 250.473 M319.445 261.111 C 319.448 261.631,319.496 261.816,319.553 261.522 C 319.609 261.228,319.607 260.802,319.548 260.576 C 319.489 260.350,319.442 260.591,319.445 261.111 M21.361 318.085 C 21.360 319.255,21.400 319.764,21.449 319.215 C 21.499 318.666,21.500 317.709,21.451 317.088 C 21.402 316.466,21.361 316.915,21.361 318.085 " stroke="none" fill="#fce2e6" fill-rule="evenodd"></path></g></svg>
