<?xml version="1.0" standalone="no"?>
<!DOCTYPE svg PUBLIC "-//W3C//DTD SVG 20010904//EN"
  "http://www.w3.org/TR/2001/REC-SVG-20010904/DTD/svg10.dtd">
<svg version="1.0" xmlns="http://www.w3.org/2000/svg"
     width="1692.000000pt" height="1372.000000pt" viewBox="0 0 1692.000000 1372.000000"
     preserveAspectRatio="xMidYMid meet">

  <g transform="translate(0.000000,1372.000000) scale(0.100000,-0.100000)"
     fill="#DC0000" stroke="none">
    <path d="M10909 13620 c-650 -58 -1189 -520 -1350 -1157 -113 -447 -17 -925
261 -1295 239 -318 576 -523 980 -594 130 -23 372 -23 505 1 644 113 1146 614
1256 1253 26 154 26 370 -1 525 -94 553 -491 1015 -1022 1191 -126 42 -232 64
-363 76 -113 10 -144 10 -266 0z"/>
    <path d="M13032 10540 c-314 -82 -532 -353 -549 -680 -12 -226 68 -426 232
-578 81 -76 164 -125 280 -165 81 -28 102 -31 215 -31 75 -1 147 4 180 13 252
63 458 254 536 496 38 116 44 278 15 397 -64 271 -268 480 -536 548 -104 27
-271 27 -373 0z"/>
    <path d="M11890 8927 c-154 -36 -263 -147 -300 -306 -8 -33 -11 -90 -8 -151 4
-82 10 -108 36 -163 58 -125 163 -206 295 -227 186 -29 361 61 440 228 31 64
32 72 32 192 0 107 -4 133 -23 183 -28 69 -89 148 -141 182 -92 62 -226 86
-331 62z"/>
    <path d="M13198 8103 c-8 -10 -45 -64 -81 -119 -47 -74 -80 -113 -121 -144
-35 -27 -59 -53 -66 -74 -9 -29 -14 -32 -41 -28 -17 2 -41 -1 -54 -8 -13 -7
-74 -77 -135 -156 -100 -128 -125 -154 -232 -235 -172 -132 -221 -184 -340
-364 -130 -197 -135 -202 -188 -186 -22 6 -48 23 -57 37 -10 14 -26 35 -35 47
l-17 22 -27 -27 c-15 -14 -43 -55 -63 -90 -34 -58 -40 -63 -74 -66 -20 -2 -37
1 -37 5 0 11 77 142 125 213 l37 54 -4 166 c-3 163 -3 166 -34 226 -22 42 -29
65 -23 76 10 17 -15 231 -33 287 -6 19 -30 53 -53 76 -84 85 -211 108 -470 86
-172 -14 -296 -36 -355 -62 -57 -25 -114 -81 -195 -189 -57 -77 -64 -92 -74
-157 -16 -104 -14 -209 5 -248 8 -18 30 -50 48 -71 18 -22 36 -50 39 -64 13
-55 129 -213 274 -377 74 -83 82 -102 62 -146 -10 -22 -13 -23 -77 -15 -91 12
-138 3 -197 -35 -27 -18 -70 -39 -95 -46 -99 -29 -132 -80 -131 -198 0 -41 3
-79 6 -84 4 -5 -5 -24 -18 -41 -40 -53 -83 -147 -107 -233 -12 -44 -47 -138
-77 -208 -40 -93 -59 -155 -70 -220 -15 -95 -30 -164 -57 -254 -31 -110 -39
-247 -32 -553 4 -162 7 -304 7 -315 -1 -11 6 -36 15 -56 15 -35 15 -41 -11
-130 -24 -79 -27 -105 -22 -178 5 -85 17 -130 45 -163 21 -25 32 -22 32 10 l1
27 33 -39 c42 -49 60 -42 50 20 -7 49 -3 53 29 23 21 -20 57 -43 57 -37 0 2
-7 41 -15 88 -8 47 -15 120 -15 163 0 64 3 80 20 97 37 37 71 -2 84 -94 6 -43
46 -93 65 -82 16 10 14 122 -4 189 -19 72 -19 100 -1 163 8 27 24 110 35 184
36 244 138 669 167 700 30 31 33 -5 9 -100 -46 -181 -56 -267 -62 -505 -5
-227 -5 -231 -33 -280 -15 -27 -30 -62 -33 -76 -9 -35 15 -111 47 -154 31 -40
31 -43 6 -123 -23 -75 -25 -144 -5 -227 18 -72 19 -177 4 -225 -6 -19 -15
-100 -19 -180 -7 -133 -12 -159 -56 -305 l-49 -160 1 -160 c0 -88 8 -241 18
-340 22 -215 17 -338 -18 -452 -47 -150 -58 -264 -36 -345 14 -47 22 -52 59
-33 66 34 75 15 36 -74 -23 -51 -30 -58 -68 -69 -96 -26 -148 -91 -151 -186
-1 -49 0 -51 37 -69 67 -32 156 -50 211 -42 64 8 154 58 233 128 41 37 79 61
115 72 78 25 96 40 104 82 3 21 17 70 30 110 23 69 24 76 13 200 -11 121 -10
138 14 283 15 85 34 207 42 270 21 148 38 226 69 325 34 107 59 219 91 400 38
218 88 314 115 217 5 -22 21 -94 35 -162 14 -67 45 -188 69 -269 24 -80 49
-182 54 -226 6 -44 34 -147 62 -230 122 -361 121 -360 131 -640 4 -137 12
-266 18 -286 15 -49 48 -77 118 -98 38 -12 80 -35 117 -65 142 -116 300 -145
432 -81 53 26 54 27 54 69 0 60 -31 100 -114 151 -58 35 -75 51 -103 101 -37
67 -40 82 -15 80 25 -2 27 70 7 278 -12 135 -14 195 -5 286 13 146 13 509 0
621 -5 48 -30 197 -55 332 -76 420 -105 643 -105 812 -1 101 -5 160 -14 180
-12 28 -11 32 20 68 43 48 44 65 2 359 l-32 226 37 294 c21 161 37 312 37 334
0 23 -11 97 -26 165 -38 187 -42 280 -15 369 30 96 93 229 176 365 68 111 130
201 358 512 107 147 127 181 137 228 11 53 19 64 127 176 l116 121 -6 71 c-4
40 -2 78 2 86 5 7 32 17 61 22 64 10 123 49 144 94 19 39 31 142 22 179 -5 19
-19 30 -65 47 l-59 21 54 111 c55 112 64 159 33 165 -8 1 -22 -5 -31 -15z"/>
    <path d="M8165 7701 c-87 -40 -132 -122 -146 -264 -12 -132 -12 -2640 1 -2708
15 -81 56 -156 99 -185 112 -74 269 -48 347 58 56 76 57 84 65 718 6 548 12
657 38 746 35 122 146 256 256 310 55 27 69 29 170 29 101 0 115 -2 168 -29
94 -46 142 -130 172 -303 12 -69 15 -197 15 -677 0 -349 4 -618 10 -656 24
-152 97 -228 230 -238 61 -4 76 -1 125 22 62 31 96 70 128 148 22 52 22 61 25
733 4 716 -2 839 -39 962 -73 236 -242 410 -459 469 -89 24 -290 25 -380 1
-146 -39 -297 -137 -400 -261 -25 -30 -48 -55 -52 -55 -5 -1 -8 215 -8 478 0
448 -1 483 -20 542 -38 122 -113 179 -236 179 -46 0 -82 -7 -109 -19z"/>
    <path d="M15120 7688 c-54 -28 -104 -91 -126 -161 -16 -47 -18 -162 -26 -1142
-11 -1335 -8 -1640 15 -1711 26 -79 70 -132 134 -161 108 -50 231 -13 300 91
53 79 56 98 60 408 l4 287 141 146 c113 117 144 144 153 133 6 -7 114 -202
240 -433 345 -637 359 -655 503 -655 144 1 236 107 236 275 1 99 16 67 -358
724 -152 267 -275 488 -274 493 2 4 84 92 183 195 202 211 230 244 270 323 91
180 -53 380 -244 339 -91 -19 -95 -23 -591 -602 -135 -157 -249 -286 -253
-286 -4 -1 -7 340 -7 757 1 833 3 809 -60 904 -61 92 -199 127 -300 76z"/>
    <path d="M6812 7629 c-53 -27 -106 -87 -128 -148 -15 -39 -19 -96 -23 -356
l-6 -310 -80 -6 c-87 -6 -125 -22 -167 -66 -36 -37 -48 -73 -48 -138 0 -65 12
-101 48 -138 43 -45 81 -61 167 -66 l80 -6 -3 -585 c-5 -870 12 -1012 143
-1158 93 -103 222 -145 450 -144 337 1 516 101 515 288 -1 53 -29 113 -74 152
-32 28 -43 32 -95 32 -32 0 -94 -7 -137 -16 -132 -28 -204 -9 -247 64 -31 53
-38 202 -35 797 l3 570 125 6 c220 11 290 60 290 202 0 90 -29 143 -99 179
-50 26 -61 28 -181 28 l-127 0 -6 298 c-3 168 -11 318 -17 345 -14 58 -60 121
-118 162 -37 25 -54 30 -115 33 -58 2 -80 -1 -115 -19z"/>
    <path d="M12940 6834 c-76 -33 -122 -100 -140 -205 -7 -44 -10 -351 -8 -989 3
-1034 -1 -971 75 -1059 50 -59 100 -82 180 -82 82 0 144 29 190 89 66 87 66
84 74 742 8 653 10 681 69 805 40 84 132 183 207 223 68 36 165 56 231 47 129
-18 202 -66 246 -164 58 -130 59 -139 65 -856 8 -760 4 -728 96 -821 43 -43
61 -54 108 -64 126 -29 237 35 288 165 l24 60 0 740 c0 676 -2 747 -18 824
-58 270 -204 444 -442 527 -73 26 -92 28 -225 28 -160 1 -225 -12 -337 -65
-90 -43 -200 -134 -274 -227 l-64 -81 -7 81 c-12 143 -54 226 -137 272 -57 30
-144 35 -201 10z"/>
    <path d="M2967 4813 c-4 -269 -7 -1170 -7 -2004 l0 -1516 218 -6 c119 -4 292
-7 385 -7 l167 0 0 843 c0 505 4 870 10 911 22 150 139 307 265 356 69 27 192
32 261 12 145 -43 242 -190 273 -416 7 -50 11 -362 11 -892 l0 -814 385 0 385
0 0 885 c0 556 -4 922 -11 983 -55 511 -273 830 -635 934 -64 18 -104 22 -214
22 -148 1 -225 -14 -336 -64 -121 -55 -283 -184 -350 -281 -14 -21 -30 -36
-35 -33 -6 3 -6 334 -3 790 l7 784 -385 0 -385 0 -6 -487z"/>
    <path d="M1511 4109 c-148 -18 -310 -76 -418 -150 -70 -48 -179 -155 -231
-228 l-46 -64 -7 29 c-4 16 -12 94 -18 174 -7 80 -14 155 -17 168 l-4 22 -336
0 c-317 0 -336 -1 -328 -17 5 -10 10 -885 12 -1945 l3 -1928 385 0 384 0 0
686 c0 397 4 684 9 682 5 -1 28 -27 51 -56 93 -118 259 -209 444 -241 87 -16
256 -13 344 5 108 22 237 73 334 130 101 60 275 228 342 331 189 289 277 650
263 1078 -16 491 -177 879 -467 1122 -90 76 -245 156 -352 183 -94 23 -247 32
-347 19z m16 -690 c227 -78 373 -370 373 -749 0 -410 -170 -713 -431 -770
-252 -55 -481 101 -556 380 -27 97 -26 629 0 743 26 111 78 208 152 283 127
130 295 171 462 113z"/>
    <path d="M8920 4094 c-342 -44 -597 -197 -749 -449 -86 -142 -134 -375 -112
-545 43 -336 267 -565 726 -745 227 -89 312 -154 334 -255 18 -84 -9 -175 -65
-219 -59 -46 -131 -64 -259 -64 -181 1 -382 54 -573 153 -53 27 -97 48 -97 47
-10 -19 -133 -602 -129 -608 21 -35 249 -119 418 -155 148 -31 456 -44 599
-25 216 29 434 114 564 221 179 146 278 355 290 610 6 130 -5 222 -42 337 -35
111 -88 196 -180 289 -121 123 -213 178 -484 291 -277 115 -345 167 -365 276
-10 55 16 135 56 174 123 119 414 104 700 -36 66 -33 78 -36 82 -22 3 9 28
113 55 231 27 118 57 244 65 278 l15 64 -72 33 c-86 40 -219 79 -342 100 -88
16 -365 28 -435 19z"/>
    <path d="M13910 4080 c-624 -86 -1035 -475 -1172 -1110 -19 -93 -22 -134 -23
-350 0 -217 3 -258 23 -358 113 -559 445 -910 967 -1024 60 -13 148 -21 261
-25 243 -8 436 14 629 72 131 39 123 5 76 340 -23 160 -44 300 -46 312 l-5 22
-73 -25 c-104 -36 -224 -54 -352 -54 -207 0 -354 57 -485 189 -87 88 -135 172
-176 306 -26 84 -28 103 -28 275 -1 216 9 270 81 420 38 80 59 108 127 175 93
92 167 136 282 165 143 37 376 22 531 -34 37 -14 69 -23 71 -21 4 4 122 603
122 621 0 15 -137 58 -265 85 -114 23 -433 34 -545 19z"/>
    <path d="M15845 4078 c-494 -55 -830 -389 -852 -848 -8 -152 12 -253 71 -375
109 -222 298 -369 663 -515 212 -85 275 -127 314 -206 30 -62 24 -166 -13
-222 -53 -79 -178 -119 -343 -108 -168 10 -363 67 -532 156 -51 27 -93 47 -93
44 0 -2 -29 -134 -65 -293 -36 -159 -65 -296 -65 -305 0 -21 96 -69 223 -111
335 -111 747 -121 1047 -24 174 57 343 171 436 295 117 156 166 310 167 524 1
419 -196 670 -675 861 -306 122 -398 195 -398 317 0 160 154 250 380 223 146
-18 338 -80 425 -137 14 -9 27 -15 29 -13 5 5 136 565 136 579 0 14 -81 53
-171 83 -215 72 -469 100 -684 75z"/>
    <path d="M5432 4028 c3 -13 213 -603 467 -1311 403 -1128 461 -1296 461 -1346
0 -50 -6 -67 -47 -139 -60 -103 -138 -196 -218 -261 -93 -76 -232 -154 -331
-186 -49 -17 -91 -31 -93 -32 -2 -1 32 -165 75 -363 l79 -361 45 6 c142 21
355 110 508 212 169 112 359 321 482 529 117 198 250 488 368 800 107 283 150
414 482 1444 l326 1015 -409 3 c-226 1 -412 0 -414 -2 -5 -5 -285 -1234 -359
-1576 -63 -292 -63 -290 -74 -290 -4 0 -20 53 -35 118 -15 64 -42 180 -61 257
-52 208 -396 1479 -403 1486 -3 4 -197 9 -430 13 l-423 7 4 -23z"/>
  </g>
</svg>
