<?xml version="1.0"?>
<svg xmlns="http://www.w3.org/2000/svg" viewBox="0 0 64 64">
  <path d="M 9 6 C 7.346 6 6 7.346 6 9 L 6 53 C 6 54.654 7.346 56 9 56 L 55 56 C 56.654 56 58 54.654 58 53 L 58 9 C 58 7.346 56.654 6 55 6 L 9 6 z M 9 8 L 55 8 C 55.551 8 56 8.449 56 9 L 56 53 C 56 53.551 55.551 54 55 54 L 9 54 C 8.449 54 8 53.551 8 53 L 8 9 C 8 8.449 8.449 8 9 8 z M 12 10 C 11.448 10 11 10.448 11 11 L 11 13 C 11 13.552 11.448 14 12 14 C 12.552 14 13 13.552 13 13 L 13 11 C 13 10.448 12.552 10 12 10 z M 17 10 C 16.448 10 16 10.448 16 11 L 16 13 C 16 13.552 16.448 14 17 14 C 17.552 14 18 13.552 18 13 L 18 11 C 18 10.448 17.552 10 17 10 z M 22 10 C 21.448 10 21 10.448 21 11 L 21 13 C 21 13.552 21.448 14 22 14 C 22.552 14 23 13.552 23 13 L 23 11 C 23 10.448 22.552 10 22 10 z M 27 10 C 26.448 10 26 10.448 26 11 L 26 13 C 26 13.552 26.448 14 27 14 C 27.552 14 28 13.552 28 13 L 28 11 C 28 10.448 27.552 10 27 10 z M 32 10 C 31.448 10 31 10.448 31 11 L 31 13 C 31 13.552 31.448 14 32 14 C 32.552 14 33 13.552 33 13 L 33 11 C 33 10.448 32.552 10 32 10 z M 37 10 C 36.448 10 36 10.448 36 11 L 36 13 C 36 13.552 36.448 14 37 14 C 37.552 14 38 13.552 38 13 L 38 11 C 38 10.448 37.552 10 37 10 z M 42 10 C 41.448 10 41 10.448 41 11 L 41 13 C 41 13.552 41.448 14 42 14 C 42.552 14 43 13.552 43 13 L 43 11 C 43 10.448 42.552 10 42 10 z M 47 10 C 46.448 10 46 10.448 46 11 L 46 13 C 46 13.552 46.448 14 47 14 C 47.552 14 48 13.552 48 13 L 48 11 C 48 10.448 47.552 10 47 10 z M 52 10 C 51.448 10 51 10.448 51 11 L 51 13 C 51 13.552 51.448 14 52 14 C 52.552 14 53 13.552 53 13 L 53 11 C 53 10.448 52.552 10 52 10 z M 16 23 A 2 2 0 0 0 14 25 A 2 2 0 0 0 16 27 A 2 2 0 0 0 18 25 A 2 2 0 0 0 16 23 z M 22 24 C 21.448 24 21 24.448 21 25 C 21 25.552 21.448 26 22 26 L 47 26 C 47.552 26 48 25.552 48 25 C 48 24.448 47.552 24 47 24 L 22 24 z M 16 31 A 2 2 0 0 0 14 33 A 2 2 0 0 0 16 35 A 2 2 0 0 0 18 33 A 2 2 0 0 0 16 31 z M 22 32 C 21.448 32 21 32.448 21 33 C 21 33.552 21.448 34 22 34 L 43 34 C 43.552 34 44 33.552 44 33 C 44 32.448 43.552 32 43 32 L 22 32 z M 16 39 A 2 2 0 0 0 14 41 A 2 2 0 0 0 16 43 A 2 2 0 0 0 18 41 A 2 2 0 0 0 16 39 z M 22 40 C 21.448 40 21 40.448 21 41 C 21 41.552 21.448 42 22 42 L 45 42 C 45.552 42 46 41.552 46 41 C 46 40.448 45.552 40 45 40 L 22 40 z"/>
</svg>
