<svg id="Capa_1" enable-background="new 0 0 512 512" viewBox="0 0 512 512" xmlns="http://www.w3.org/2000/svg"><g><path d="m351 482h-35v-52h-120v52h-35c-8.284 0-15 6.716-15 15s6.716 15 15 15h190c8.284 0 15-6.716 15-15s-6.716-15-15-15z"/><path d="m497 0h-482c-8.284 0-15 6.716-15 15v295h75v-97.5c0-22.663 11.239-42.738 28.423-54.986-8.339-9.297-13.423-21.572-13.423-35.014 0-28.948 23.551-52.5 52.5-52.5s52.5 23.552 52.5 52.5c0 8.048-1.825 15.676-5.076 22.5h61.91c24.813 0 45 20.186 45 45s-20.187 45-45 45h-41.834v75h302v-295c0-8.284-6.716-15-15-15zm-75 220h-72c-8.284 0-15-6.716-15-15s6.716-15 15-15h72c8.284 0 15 6.716 15 15s-6.716 15-15 15zm0-60h-72c-8.284 0-15-6.716-15-15s6.716-15 15-15h72c8.284 0 15 6.716 15 15s-6.716 15-15 15zm0-60h-152c-8.284 0-15-6.716-15-15s6.716-15 15-15h152c8.284 0 15 6.716 15 15s-6.716 15-15 15z"/><circle cx="142.5" cy="122.5" r="22.5"/><path d="m0 385c0 8.284 6.716 15 15 15h482c8.284 0 15-6.716 15-15v-45h-512z"/><path d="m105 212.5v97.5h75v-90c0-8.284 6.716-15 15-15h56.834c8.271 0 15-6.729 15-15s-6.729-15-15-15h-109.334c-20.678 0-37.5 16.822-37.5 37.5z"/></g></svg>
