<svg id="Capa_1" enable-background="new 0 0 488.512 488.512" height="512" viewBox="0 0 488.512 488.512" width="512" xmlns="http://www.w3.org/2000/svg"><path d="m485.392 83.862c-1.891-1.155-4.242-1.262-6.231-.284l-49.108 24.175-18.903-38.386 54.259-26.707c3.207-1.578 4.527-5.457 2.949-8.664-.224-.455-.501-.883-.825-1.273-1.713-2.065-3.599-4.131-5.609-6.139-35.444-35.445-92.912-35.446-128.357-.001-17.021 17.021-26.584 40.106-26.584 64.177.004 3.218.176 6.434.516 9.634l-59.829 59.828-132.498-132.32c-.948-.946-2.166-1.576-3.486-1.801l-94.16-16.037c-3.523-.601-6.866 1.769-7.467 5.292-.123.719-.123 1.454 0 2.174l16.039 94.161c.225 1.321.854 2.539 1.801 3.487l132.326 132.497-59.874 59.873c-49.791-5.342-94.485 30.692-99.827 80.483-.399 3.721-.568 7.464-.504 11.206.06 3.574 3.006 6.422 6.58 6.362.954-.016 1.893-.243 2.749-.664l49.108-24.175 18.902 38.386-54.259 26.707c-3.207 1.578-4.527 5.457-2.949 8.664.224.455.501.883.825 1.273 1.713 2.065 3.599 4.131 5.609 6.139 35.444 35.445 92.912 35.446 128.357.001 17.021-17.021 26.584-40.106 26.584-64.177-.004-3.218-.176-6.434-.516-9.634l59.775-59.774 108.836 109.05c11.591 11.703 27.383 18.28 43.854 18.265h.021c16.464.018 32.251-6.548 43.847-18.236.014-.015.03-.067.045-.083 24.188-24.243 24.159-63.499-.065-87.706l-108.98-108.84 59.821-59.823c3.185.34 6.386.514 9.589.519 50.081.042 90.713-40.522 90.755-90.602 0-.536-.004-1.072-.013-1.608-.039-2.22-1.21-4.264-3.103-5.419zm-429.278 12.26 301.116 301.671-14.407 14.407-301.194-301.597zm310.267 292.519-301.119-301.671 21.707-21.707 301.671 301.12zm31.411-31.41-301.672-301.119 14.481-14.481 301.595 301.195zm-373.439-332.875 72.817 12.404-60.413 60.411zm121.437 428.42c-30.075 30.007-78.646 30.388-109.187.855l52.278-25.733c3.207-1.578 4.527-5.457 2.949-8.664l-24.621-49.998c-1.579-3.207-5.458-4.526-8.664-2.948l-45.063 22.184c2.022-17.33 9.868-33.461 22.252-45.751 30.391-30.391 79.664-30.392 110.056-.001 30.39 30.391 30.391 79.664 0 110.056zm32.25-79.996c-8.626-30.138-32.204-53.684-62.353-62.27l53.679-53.679 62.269 62.351zm264.525 20.699c.041 13.025-5.134 25.525-14.37 34.71-.015.014-.028.108-.043.119-9.171 9.229-21.647 14.416-34.658 14.408h-.016c-13.035.006-25.531-5.204-34.701-14.468l-6.808-6.853 69.385-69.405 6.818 6.795c9.242 9.176 14.425 21.67 14.393 34.694zm-123.385-161.843-62.351-62.269 53.639-53.636c8.626 30.138 32.204 53.684 62.353 62.271zm133.595-85.849c-30.391 30.362-79.64 30.338-110.002-.053s-30.338-79.64.053-110.002c30.034-30.005 78.579-30.386 109.08-.855l-52.278 25.736c-3.207 1.578-4.527 5.457-2.949 8.664l24.621 49.998c1.579 3.207 5.458 4.526 8.664 2.948l45.063-22.184c-2.022 17.33-9.868 33.461-22.252 45.751z"/></svg>
